HIERARCHY
ROOT Hips
{
  OFFSET -4.35178 90.3298 111.633
  CHANNELS 6 Xposition Yposition Zposition Zrotation Xrotation Yrotation
  JOINT LeftUpLeg
  {
    OFFSET 0.103456 1.85784 10.5485
    CHANNELS 6 Xposition Yposition Zposition Zrotation Xrotation Yrotation
    JOINT LeftLeg
    {
      OFFSET 43.5 -4.2e-05 0
      CHANNELS 6 Xposition Yposition Zposition Zrotation Xrotation Yrotation
      JOINT LeftFoot
      {
        OFFSET 42.3722 1.9e-05 0
        CHANNELS 6 Xposition Yposition Zposition Zrotation Xrotation Yrotation
        JOINT LeftToe
        {
          OFFSET 17.3 0 0
          CHANNELS 6 Xposition Yposition Zposition Zrotation Xrotation Yrotation
          End Site
          {
            OFFSET 0 0 0
          }
        }
      }
    }
  }
  JOINT RightUpLeg
  {
    OFFSET 0.103456 1.85782 -10.5485
    CHANNELS 6 Xposition Yposition Zposition Zrotation Xrotation Yrotation
    JOINT RightLeg
    {
      OFFSET 43.5 -2.7e-05 0
      CHANNELS 6 Xposition Yposition Zposition Zrotation Xrotation Yrotation
      JOINT RightFoot
      {
        OFFSET 42.3723 0 0
        CHANNELS 6 Xposition Yposition Zposition Zrotation Xrotation Yrotation
        JOINT RightToe
        {
          OFFSET 17.3 0 1.7e-05
          CHANNELS 6 Xposition Yposition Zposition Zrotation Xrotation Yrotation
          End Site
          {
            OFFSET 0 0 0
          }
        }
      }
    }
  }
  JOINT Spine
  {
    OFFSET 6.90197 -2.60373 0
    CHANNELS 6 Xposition Yposition Zposition Zrotation Xrotation Yrotation
    JOINT Spine1
    {
      OFFSET 12.5881 0 0
      CHANNELS 6 Xposition Yposition Zposition Zrotation Xrotation Yrotation
      JOINT Spine2
      {
        OFFSET 12.3432 -1.8e-05 0
        CHANNELS 6 Xposition Yposition Zposition Zrotation Xrotation Yrotation
        JOINT Neck
        {
          OFFSET 25.8329 2.3e-05 0
          CHANNELS 6 Xposition Yposition Zposition Zrotation Xrotation Yrotation
          JOINT Head
          {
            OFFSET 11.7666 0 0
            CHANNELS 6 Xposition Yposition Zposition Zrotation Xrotation Yrotation
            End Site
            {
              OFFSET 0 0 0
            }
          }
        }
        JOINT LeftShoulder
        {
          OFFSET 19.7459 -1.48035 6.0001
          CHANNELS 6 Xposition Yposition Zposition Zrotation Xrotation Yrotation
          JOINT LeftArm
          {
            OFFSET 11.2841 1.8e-05 -2e-05
            CHANNELS 6 Xposition Yposition Zposition Zrotation Xrotation Yrotation
            JOINT LeftForeArm
            {
              OFFSET 33 -1.3e-05 1.9e-05
              CHANNELS 6 Xposition Yposition Zposition Zrotation Xrotation Yrotation
              JOINT LeftHand
              {
                OFFSET 25.2 3.2e-05 1.1e-05
                CHANNELS 6 Xposition Yposition Zposition Zrotation Xrotation Yrotation
                End Site
                {
                  OFFSET 0 0 0
                }
              }
            }
          }
        }
        JOINT RightShoulder
        {
          OFFSET 19.7461 -1.48036 -6.00008
          CHANNELS 6 Xposition Yposition Zposition Zrotation Xrotation Yrotation
          JOINT RightArm
          {
            OFFSET 11.2841 0 0
            CHANNELS 6 Xposition Yposition Zposition Zrotation Xrotation Yrotation
            JOINT RightForeArm
            {
              OFFSET 33.0001 1.6e-05 0
              CHANNELS 6 Xposition Yposition Zposition Zrotation Xrotation Yrotation
              JOINT RightHand
              {
                OFFSET 25.1998 0.000123 0.000432
                CHANNELS 6 Xposition Yposition Zposition Zrotation Xrotation Yrotation
                End Site
                {
                  OFFSET 0 0 0
                }
              }
            }
          }
        }
      }
    }
  }
}
MOTION
Frames:	4
Frame Time:	0.0333333
21.3524 89.3485 -143.025 86.7274 -4.88239 2.34178 0.103456 1.85784 10.5485 10.8332 -6.2501 -178.483 43.5 -4.2e-05 1e-05 -0.854472 -12.6278 -3.39548 42.3722 1.9e-05 -1.42109e-14 75.1222 -16.9247 7.47382 17.3 7.10543e-15 3e-06 21.4546 -1e-06 0.003093 0.103456 1.85782 -10.5485 5.87706 10.0416 177.001 43.5 -2.7e-05 4e-06 -7.84995 11.6029 1.6891 42.3723 0 1e-05 82.1136 16.4223 -16.1311 17.3 -6e-06 1.7e-05 21.4546 -1.9e-05 -0.003116 6.90197 -2.60373 -3e-06 6.88951 -0.322058 0.140115 12.5881 1e-05 8e-06 3.78452 -0.573426 0.34771 12.3432 -1.8e-05 -5e-06 3.47374 -0.496112 0.394064 25.8329 2.3e-05 7e-06 11.0352 -5.8539 -2.30157 11.7666 -8e-06 -6e-06 -24.7858 -14.113 10.6613 19.7459 -1.48035 6.0001 179.736 7.06303 -99.9046 11.2841 1.8e-05 -2e-05 27.9305 -31.9083 35.9171 33 -1.3e-05 1.9e-05 -18.5847 7.10187 -23.7844 25.2 3.2e-05 1.1e-05 -4.07943 29.5677 1.14319 19.7461 -1.48036 -6.00008 -172.548 -7.40852 88.1439 11.2841 0 -1e-06 5.28185 8.67407 -4.63751 33.0001 1.6e-05 -1e-06 -15.5004 -4.49964 21.2122 25.1998 0.000123 0.000432 10.8481 -19.61 7.33768 
21.3527 89.3496 -143.024 86.7188 -4.90354 2.34186 0.103456 1.85784 10.5485 10.7881 -6.22784 -178.483 43.5 -4.2e-05 1e-05 -0.938141 -12.6125 -3.39528 42.3722 1.9e-05 0 75.1633 -16.9558 7.47506 17.3 7.10543e-15 3e-06 21.4546 -1e-06 0.003093 0.103456 1.85782 -10.5485 5.89973 10.031 177.001 43.5 -2.7e-05 4e-06 -7.85913 11.5921 1.68904 42.3723 0 1e-05 82.117 16.4385 -16.1277 17.3 -6e-06 1.7e-05 21.4546 -1.9e-05 -0.003116 6.90197 -2.60373 -3e-06 6.88955 -0.336931 0.140115 12.5881 1e-05 8e-06 3.78471 -0.603279 0.347712 12.3432 -1.8e-05 -5e-06 3.47394 -0.525901 0.394066 25.8329 2.3e-05 7e-06 11.0381 -5.97939 -2.22498 11.7666 -8e-06 -6e-06 -24.8535 -14.3102 10.6388 19.7459 -1.48035 6.0001 179.748 7.03232 -99.9381 11.2841 1.8e-05 -2e-05 27.9992 -31.8988 35.9474 33 -1.3e-05 1.9e-05 -18.5748 7.10176 -23.7864 25.2 3.2e-05 1.1e-05 -4.05578 29.5915 1.1143 19.7461 -1.48036 -6.00008 -172.495 -7.49951 88.1737 11.2841 0 -1e-06 5.27837 8.6918 -4.61719 33.0001 1.6e-05 -1e-06 -15.4451 -4.49971 21.2098 25.1998 0.000123 0.000432 10.8483 -19.6116 7.33775 
21.3523 89.3503 -143.02 86.7151 -4.91244 2.34189 0.103456 1.85784 10.5485 10.8308 -6.21557 -178.483 43.5 -4.2e-05 1e-05 -0.841996 -12.6166 -3.39533 42.3722 1.9e-05 1.42109e-14 75.11 -16.9516 7.4749 17.3 0 3e-06 21.4546 -1e-06 0.003093 0.103456 1.85782 -10.5485 5.89237 10.0247 177.001 43.5 -2.7e-05 4e-06 -7.87278 11.5842 1.68899 42.3723 -3.55271e-15 1e-05 82.1023 16.4701 -16.1028 17.3 -6e-06 1.7e-05 21.4546 -1.9e-05 -0.003116 6.90197 -2.60373 -3e-06 6.88956 -0.340124 0.140115 12.5881 1e-05 8e-06 3.77431 -0.609718 0.347712 12.3432 -1.8e-05 -5e-06 3.46366 -0.532432 0.394066 25.8329 2.3e-05 7e-06 11.0476 -6.02399 -2.20202 11.7666 -8e-06 -6e-06 -24.8712 -14.3666 10.6235 19.7459 -1.48035 6.0001 179.75 7.01195 -99.9489 11.2841 1.8e-05 -2e-05 28.0102 -31.8892 35.9377 33 -1.3e-05 1.9e-05 -18.5653 7.09547 -23.7748 25.2 3.2e-05 1.1e-05 -4.07605 29.5892 1.11591 19.7461 -1.48036 -6.00008 -172.517 -7.51533 88.1925 11.2841 0 -1e-06 5.26987 8.73649 -4.58533 33.0001 1.6e-05 -1e-06 -15.4155 -4.50008 21.1976 25.1998 0.000123 0.000432 10.7152 -19.5995 7.3372 
21.3557 89.3504 -143.01 86.712 -4.91374 2.34189 0.103456 1.85784 10.5485 10.8423 -6.20937 -178.483 43.5 -4.2e-05 1e-05 -0.820781 -12.6165 -3.39464 42.3722 1.9e-05 1.42109e-14 75.0947 -16.9445 7.47094 17.3 7.10543e-15 3e-06 21.4546 -1e-06 0.003093 0.103456 1.85782 -10.5485 5.85799 10.0231 177.001 43.5 -2.7e-05 4e-06 -7.91254 11.5809 1.68861 42.3723 0 1e-05 82.1028 16.4974 -16.0999 17.3 -6e-06 1.7e-05 21.4546 -1.9e-05 -0.003116 6.90197 -2.60373 -3e-06 6.88956 -0.34073 0.140115 12.5881 1e-05 8e-06 3.76469 -0.611063 0.347712 12.3432 -1.8e-05 -5e-06 3.45414 -0.53391 0.394067 25.8329 2.3e-05 7e-06 11.0603 -6.04115 -2.19162 11.7666 -8e-06 -6e-06 -24.8922 -14.3937 10.6209 19.7459 -1.48035 6.0001 179.751 6.99388 -99.9537 11.2841 1.8e-05 -2e-05 27.9973 -31.8715 35.8887 33 -1.3e-05 1.9e-05 -18.5774 7.12883 -23.7812 25.2 3.2e-05 1.1e-05 -4.10319 29.5926 1.14251 19.7461 -1.48036 -6.00008 -172.535 -7.51215 88.2111 11.2841 0 -1e-06 5.24712 8.74283 -4.55767 33.0001 1.6e-05 -1e-06 -15.3801 -4.49611 21.1767 25.1998 0.000123 0.000432 10.7452 -19.6135 7.33784 
